<?xml version="1.0" standalone="no"?>
<!DOCTYPE svg PUBLIC "-//W3C//DTD SVG 1.1//EN" "http://www.w3.org/Graphics/SVG/1.1/DTD/svg11.dtd" >
<svg xmlns="http://www.w3.org/2000/svg">
<metadata></metadata>
<defs>
<font id="bnpptyperegular" horiz-adv-x="1126" >
<font-face units-per-em="2048" ascent="1638" descent="-410" />
<missing-glyph horiz-adv-x="552" />
<glyph unicode="&#xfb01;" horiz-adv-x="1165" d="M14 834v180h170v82q0 106 41 178t106.5 115t147.5 61t166 18q106 0 191.5 -14t144.5 -35l-16 -192q-59 23 -140.5 40t-167.5 17q-121 0 -186 -42t-65 -134v-94h591v-1014h-204v834h-387v-834h-222v834h-170z" />
<glyph unicode="&#xfb02;" horiz-adv-x="1269" d="M14 834v180h170v92q0 98 30 167.5t82 113t121.5 63.5t151.5 20q47 0 86 -5t82 -15l-28 -182q-33 8 -66 12t-68 4q-78 0 -123.5 -32.5t-45.5 -129.5v-108h278v-180h-278v-834h-222v834h-170zM885 0v1446h219v-1446h-219z" />
<glyph horiz-adv-x="2048" />
<glyph horiz-adv-x="2048" />
<glyph unicode="&#xd;" horiz-adv-x="552" />
<glyph unicode=" "  horiz-adv-x="552" />
<glyph unicode="&#x09;" horiz-adv-x="552" />
<glyph unicode="&#xa0;" horiz-adv-x="552" />
<glyph unicode="!" horiz-adv-x="563" d="M135 123q0 66 39 104.5t109 38.5q66 0 104.5 -38.5t38.5 -104.5q0 -70 -39 -106.5t-104 -36.5q-70 0 -109 36.5t-39 106.5zM154 1325h256l-25 -917h-207z" />
<glyph unicode="&#x22;" horiz-adv-x="880" d="M102 1386h273l-53 -475h-166zM504 1386h272l-53 -475h-166z" />
<glyph unicode="#" horiz-adv-x="1347" d="M51 365l33 190h227l41 238h-227l33 188h227l64 344h188l-64 -344h295l62 344h203l-64 -344h227l-32 -188h-228l-41 -238h226l-33 -190h-227l-64 -365h-203l66 365h-293l-66 -365h-188l63 365h-225zM500 555h293l41 238h-293z" />
<glyph unicode="$" d="M125 168l57 199q74 -45 171.5 -73t191.5 -28q121 0 170 28t49 71q0 47 -31 75.5t-86 59.5l-315 172q-84 45 -133 116.5t-49 157.5q0 129 80.5 213t271.5 101v235h155v-235q82 -6 156 -26t139 -44l-41 -213q-18 14 -58 27.5t-89 24.5t-103.5 18.5t-103.5 7.5 q-74 0 -125 -19.5t-51 -66.5q0 -49 32.5 -77t104.5 -67l309 -170q80 -45 119 -113.5t39 -154.5q0 -72 -24.5 -127t-67.5 -94t-103.5 -62.5t-132.5 -33.5v-277h-155v268q-49 2 -101.5 11.5t-101.5 24t-94 32.5t-80 39z" />
<glyph unicode="%" horiz-adv-x="1679" d="M61 987q0 98 29 167t76 112t107.5 62.5t123.5 19.5t124 -19.5t108 -62.5t75.5 -112t28.5 -167t-28.5 -166.5t-75.5 -111.5t-107.5 -62.5t-124.5 -19.5q-63 0 -123.5 19.5t-107.5 62.5t-76 111.5t-29 166.5zM246 987q0 -61 15 -101t38 -64.5t49.5 -35t48.5 -10.5 q23 0 49.5 10.5t49 35t38 64.5t15.5 101t-15.5 101t-38 65t-49 35t-49.5 10t-49 -10t-49 -35t-38 -64.5t-15 -101.5zM293 0l899 1325h194l-899 -1325h-194zM946 340q0 98 29 166.5t76 112t107.5 62.5t123.5 19t123.5 -19t108 -62.5t76 -112t28.5 -166.5t-28.5 -167t-76 -112 t-107.5 -62t-124 -19q-63 0 -123.5 19t-107.5 62t-76 112t-29 167zM1130 340q0 -61 15.5 -101t38 -64.5t49.5 -35t49 -10.5q23 0 49.5 10.5t49 35t38 64.5t15.5 101t-15.5 101t-38 64.5t-49 35t-49.5 10.5t-49.5 -10.5t-49 -35t-38 -64.5t-15.5 -101z" />
<glyph unicode="&#x26;" horiz-adv-x="1329" d="M102 356q0 70 20.5 126.5t56.5 101.5t85 80.5t109 66.5q-57 59 -101.5 126t-44.5 159q0 66 24.5 125t73 105t120 73t165.5 27q100 0 176 -26t126.5 -69t75 -100t24.5 -121q0 -66 -21.5 -119t-59.5 -97t-89 -79t-111 -65l234 -256q12 31 21 76t9 85h219 q0 -92 -21.5 -172.5t-68.5 -150.5q55 -57 121 -127t121 -125h-287l-108 113q-41 -31 -80 -56.5t-84 -42t-99.5 -25.5t-123.5 -9q-111 0 -200 27.5t-151.5 76.5t-96.5 118.5t-34 153.5zM350 365q0 -55 21.5 -92t57.5 -60t82 -32t93 -9q78 0 135.5 27.5t89.5 62.5l-309 328 q-72 -35 -121 -88t-49 -137zM465 1022q0 -66 35 -115t82 -90q82 33 134 83t52 128q0 63 -41 97t-111 34q-74 0 -112.5 -35.5t-38.5 -101.5z" />
<glyph unicode="'" horiz-adv-x="471" d="M98 1386h273l-54 -475h-186z" />
<glyph unicode="(" horiz-adv-x="655" d="M131 514q0 119 16.5 241t50 241.5t86 233t124.5 216.5h219q-129 -199 -212 -431.5t-83 -500.5q0 -266 83 -486.5t212 -418.5h-219q-143 205 -210 435t-67 470z" />
<glyph unicode=")" horiz-adv-x="655" d="M28 -391h219q143 205 210 435t67 470q0 119 -16.5 241t-50 241.5t-86 233t-124.5 216.5h-219q129 -199 212 -431.5t83 -500.5q0 -266 -83 -486.5t-212 -418.5z" />
<glyph unicode="*" horiz-adv-x="819" d="M57 1026l60 172l225 -100l-37 227h205l-35 -227l225 100l60 -172l-246 -45l174 -166l-145 -127l-135 203l-134 -203l-145 127l170 166z" />
<glyph unicode="+" d="M113 557v191h346v329h207v-329h346v-191h-346v-330h-207v330h-346z" />
<glyph unicode="," horiz-adv-x="512" d="M18 -274l154 530h254l-207 -530h-201z" />
<glyph unicode="-" horiz-adv-x="819" d="M141 455v202h537v-202h-537z" />
<glyph unicode="." horiz-adv-x="512" d="M111 123q0 66 38.5 104.5t108.5 38.5q66 0 104.5 -38.5t38.5 -104.5q0 -70 -38.5 -106.5t-104.5 -36.5q-70 0 -108.5 36.5t-38.5 106.5z" />
<glyph unicode="/" horiz-adv-x="819" d="M0 -94l629 1532h190l-631 -1532h-188z" />
<glyph unicode="0" d="M49 659q0 145 32 270.5t95.5 217.5t159.5 145.5t225 53.5t226.5 -49.5t161 -139.5t95 -216t31.5 -282q0 -129 -29.5 -250.5t-92 -217t-160 -153.5t-232.5 -58q-125 0 -220 50t-159.5 140t-98.5 215t-34 274zM285 659q0 -78 10 -160.5t41 -153.5t85 -116t140 -45t140.5 45 t85 116t42 154t11.5 160q0 80 -11.5 165t-42 156t-85 116t-140.5 45t-140 -45t-85 -116t-41 -156t-10 -165z" />
<glyph unicode="1" d="M145 0v193h353v907l-353 -105v199l373 131h209v-1132h299v-193h-881z" />
<glyph unicode="2" d="M119 0v168l442 461q82 86 135.5 158.5t53.5 158.5q0 100 -66 147.5t-168 47.5q-98 0 -186 -28t-150 -69l-41 207q61 39 161.5 67t217.5 28q104 0 191.5 -24t151 -72t99 -120.5t35.5 -171.5q0 -78 -21.5 -141t-58 -119.5t-86 -107.5t-106.5 -103l-297 -270h590v-217h-897z " />
<glyph unicode="3" d="M102 86l56 207q78 -51 168 -80t188 -29q119 0 191.5 44t72.5 145q0 57 -21.5 95t-57 60.5t-82 31.5t-97.5 11h-178v193h152q51 0 97 10t81 33.5t55.5 59.5t20.5 85q0 98 -66 143.5t-168 45.5q-98 0 -187 -28t-151 -69l-41 207q61 39 164.5 67t220.5 28q100 0 187.5 -23 t151 -70t99 -118.5t35.5 -169.5q0 -55 -18.5 -102.5t-50 -84.5t-73.5 -61.5t-87 -34.5q53 -10 100 -33.5t83 -62.5t56.5 -94.5t20.5 -129.5q0 -100 -42 -171.5t-111.5 -118.5t-162 -69.5t-190.5 -22.5q-133 0 -232.5 28.5t-183.5 77.5z" />
<glyph unicode="4" d="M37 295v197l555 833h332v-825h157v-205h-157v-295h-226v295h-661zM283 500h415v622z" />
<glyph unicode="5" d="M88 86l53 207q78 -51 169 -80t190 -29q135 0 201.5 59.5t66.5 153.5q0 63 -26.5 106.5t-75 71t-116 40t-149.5 12.5q-53 0 -114.5 -4.5t-124.5 -14.5v717h799v-221h-588v-277q23 2 47 2h45q262 0 405.5 -104t143.5 -315q0 -100 -39 -180t-106.5 -135.5t-161 -85 t-203.5 -29.5q-133 0 -232.5 28.5t-183.5 77.5z" />
<glyph unicode="6" d="M61 662q0 188 49.5 319t129 212t183 118t214.5 37q100 0 198.5 -19.5t184.5 -64.5l-53 -209q-80 47 -164 66.5t-162 19.5q-72 0 -135.5 -23.5t-110.5 -73t-73.5 -125t-26.5 -180.5q45 35 122 67t183 32q98 0 182 -29t145.5 -81t96.5 -127t35 -167t-29 -175t-89 -144.5 t-151.5 -98t-216.5 -36.5q-106 0 -199 40.5t-163 124.5t-110 212.5t-40 304.5zM305 524q6 -154 74 -247t205 -93q106 0 168.5 61.5t62.5 170.5q0 102 -61.5 161.5t-175.5 59.5q-82 0 -154 -33t-119 -80z" />
<glyph unicode="7" d="M90 1124v201h938v-168l-579 -1157h-261l594 1124h-692z" />
<glyph unicode="8" d="M84 360q0 63 19.5 112.5t53 89.5t76.5 70t93 54q-43 23 -83 52.5t-71 68.5t-49.5 85t-18.5 101q0 90 38 157t102.5 111t146.5 65.5t172 21.5q94 0 178 -20.5t146.5 -63.5t98.5 -111t36 -160q0 -111 -62.5 -187.5t-166.5 -127.5q55 -29 100 -57.5t79 -65.5t52 -84t18 -111 q0 -92 -36.5 -162.5t-101 -118.5t-153 -73.5t-188.5 -25.5q-98 0 -185 26.5t-152.5 76.5t-103.5 120.5t-38 156.5zM330 356q0 -86 67.5 -133t165.5 -47q102 0 168 43t66 131q0 43 -20.5 74t-56.5 57.5t-86.5 52t-107.5 58.5q-92 -45 -144 -97.5t-52 -138.5zM350 999 q0 -41 19.5 -70.5t53.5 -54t79 -47t94 -47.5q86 35 137 86.5t51 128.5q0 43 -19.5 73t-50 47.5t-70.5 25.5t-81 8q-39 0 -76.5 -8t-68.5 -25.5t-49.5 -46.5t-18.5 -70z" />
<glyph unicode="9" d="M51 899q0 88 32 169t94.5 142.5t154.5 98.5t213 37q236 0 366.5 -168t130.5 -471q0 -160 -33.5 -293t-104 -230.5t-179.5 -150.5t-256 -53q-109 0 -194 18t-181 65l53 197q78 -41 166 -58.5t160 -17.5q70 0 131.5 23.5t105.5 72t69.5 122t25.5 176.5q-57 -43 -136 -68 t-155 -25q-98 0 -182 26t-146.5 78t-98.5 130t-36 180zM291 905q0 -113 67.5 -168t186.5 -55q29 0 63.5 6t69.5 18.5t67.5 31t57.5 42.5q0 72 -16.5 137.5t-49 114.5t-83.5 79t-119 30q-106 0 -175 -63.5t-69 -172.5z" />
<glyph unicode=":" horiz-adv-x="512" d="M103 123q0 66 38.5 104.5t108.5 38.5q66 0 104.5 -38.5t38.5 -104.5q0 -70 -38.5 -106.5t-104.5 -36.5q-70 0 -108.5 36.5t-38.5 106.5zM103 891q0 66 38.5 104.5t108.5 38.5q66 0 104.5 -38.5t38.5 -104.5q0 -70 -38.5 -106.5t-104.5 -36.5q-70 0 -108.5 36.5 t-38.5 106.5z" />
<glyph unicode=";" horiz-adv-x="512" d="M-17 -274l154 530h254l-207 -530h-201zM103 891q0 66 38.5 104.5t108.5 38.5q66 0 104.5 -38.5t38.5 -104.5q0 -70 -38.5 -106.5t-104.5 -36.5q-70 0 -108.5 36.5t-38.5 106.5z" />
<glyph unicode="&#x3c;" d="M113 559v184l899 353v-207l-643 -238l643 -237v-205z" />
<glyph unicode="=" d="M113 317v191h899v-191h-899zM113 803v190h899v-190h-899z" />
<glyph unicode="&#x3e;" d="M113 209v205l643 237l-643 238v207l899 -353v-184z" />
<glyph unicode="?" horiz-adv-x="778" d="M23 1262q61 41 146 62.5t185 21.5q180 0 277.5 -86t97.5 -234q0 -94 -44 -164.5t-97 -131t-97.5 -120t-44.5 -129.5q0 -20 2.5 -35.5t6.5 -37.5h-201q-10 31 -13 50t-3 52q0 100 39.5 166.5t88 120t88.5 101.5t40 110q0 74 -52.5 104.5t-128.5 30.5q-68 0 -129 -18.5 t-102 -41.5zM215 123q0 66 39 104.5t108 38.5q66 0 105 -38.5t39 -104.5q0 -70 -39 -106.5t-105 -36.5q-70 0 -108.5 36.5t-38.5 106.5z" />
<glyph unicode="@" horiz-adv-x="1511" d="M92 516q0 129 41 248t124 211t208 147.5t293 55.5t293 -50.5t206.5 -131.5t121.5 -184t40 -210q0 -94 -18.5 -175t-58 -141.5t-101 -95t-147.5 -34.5q-113 0 -170 75q-35 -35 -85.5 -54t-109.5 -19q-53 0 -108.5 17.5t-100.5 57t-73.5 107.5t-28.5 168q0 84 26.5 150.5 t72.5 111.5t107.5 68.5t131.5 23.5q143 0 224 -74.5t81 -207.5v-172q0 -39 20.5 -59.5t55.5 -20.5q74 0 106.5 78.5t32.5 197.5q0 98 -36 179t-103.5 139.5t-163.5 90t-215 31.5q-131 0 -228.5 -44t-162 -116.5t-97 -167.5t-32.5 -200q0 -125 37.5 -228.5t109.5 -177 t174.5 -113.5t231.5 -40q98 0 204.5 15.5t210.5 74.5l41 -125q-111 -57 -224.5 -79.5t-238.5 -22.5q-180 0 -311 59.5t-215 157.5t-125 223t-41 256zM604 506q0 -96 44 -139t110 -43q35 0 66.5 12t47.5 29v206q0 39 -11 63.5t-29.5 38t-40 18.5t-39.5 5q-23 0 -48.5 -9 t-48 -31.5t-37 -58.5t-14.5 -91z" />
<glyph unicode="A" horiz-adv-x="1296" d="M0 0l530 1325h236l530 -1325h-260l-118 303h-566l-116 -303h-236zM422 500h422l-213 561z" />
<glyph unicode="B" horiz-adv-x="1206" d="M164 0v1325h491q86 0 167 -21.5t143.5 -64.5t100.5 -105.5t38 -144.5q0 -106 -52.5 -183t-148.5 -110q119 -37 174.5 -109.5t55.5 -189.5q0 -84 -29 -156.5t-88.5 -126t-150.5 -84t-216 -30.5h-485zM395 193h254q63 0 108.5 16t73 45t40 65.5t12.5 77.5 q0 104 -63.5 151.5t-184.5 47.5h-240v-403zM395 782h242q98 0 159.5 44t61.5 135q0 88 -64.5 130t-175.5 42h-223v-351z" />
<glyph unicode="C" horiz-adv-x="1177" d="M82 662q0 168 50 295.5t136 213.5t200 130.5t241 44.5q125 0 216 -20.5t162 -55.5l-40 -211q-57 35 -143.5 60.5t-170.5 25.5t-157.5 -25.5t-129 -83t-88 -149.5t-32.5 -225t32.5 -225.5t88 -150t129 -82t157.5 -24.5q74 0 165 23.5t167 60.5l53 -186 q-88 -49 -194.5 -73.5t-214.5 -24.5q-127 0 -241 44t-200 130t-136 213t-50 295z" />
<glyph unicode="D" horiz-adv-x="1327" d="M164 0v1325h407q182 0 310.5 -42t209 -125t117.5 -207t37 -287q0 -205 -53 -334t-144.5 -203t-214 -100.5t-262.5 -26.5h-407zM395 193h135q109 0 196 17t148.5 67.5t94 141.5t32.5 240q0 154 -32.5 247t-94 143.5t-149.5 67t-197 16.5h-133v-940z" />
<glyph unicode="E" horiz-adv-x="1093" d="M164 365v960h821v-192h-590v-328h553v-193h-553v-243q0 -35 9.5 -67t30 -56.5t55 -38.5t88.5 -14h423v-193h-409q-117 0 -199 24.5t-133 70.5t-73.5 113.5t-22.5 156.5z" />
<glyph unicode="F" horiz-adv-x="1030" d="M164 0v961q0 174 96 269t295 95h403v-192h-397q-51 0 -84 -14.5t-51 -39t-24.5 -56.5t-6.5 -67v-200h531v-193h-531v-563h-231z" />
<glyph unicode="G" horiz-adv-x="1355" d="M92 662q0 180 58.5 310t155.5 213t223 122t264 39q106 0 213.5 -18.5t191.5 -57.5l-41 -211q-84 41 -179 63.5t-185 22.5t-173 -26.5t-146.5 -85t-100.5 -150.5t-37 -221q0 -106 30.5 -194.5t87 -152t137.5 -98.5t181 -35q53 0 116.5 9.5t112.5 35.5v287h-294v193h526 v-609q-113 -59 -230.5 -90t-234.5 -31q-135 0 -258 42t-215 127t-147.5 213.5t-55.5 302.5z" />
<glyph unicode="H" horiz-adv-x="1454" d="M184 0v1325h232v-547h622v547h232v-1325h-232v584h-622v-584h-232z" />
<glyph unicode="I" horiz-adv-x="600" d="M184 0v1325h232v-1325h-232z" />
<glyph unicode="J" horiz-adv-x="688" d="M59 -10v200q23 -4 47.5 -4h36.5q72 0 114 37t42 135v967h225v-952q0 -211 -93 -302t-253 -91q-29 0 -59.5 2t-59.5 8z" />
<glyph unicode="K" horiz-adv-x="1271" d="M184 0v1325h232v-604l497 604h291l-473 -547l359 -594h157v-166q-39 -16 -91 -27t-97 -11q-61 0 -102.5 19t-86.5 93l-305 514l-149 -180v-426h-232z" />
<glyph unicode="L" horiz-adv-x="960" d="M164 365v960h229v-956q0 -70 40 -123t142 -53h355v-193h-361q-117 0 -195.5 24.5t-124.5 70.5t-65.5 113.5t-19.5 156.5z" />
<glyph unicode="M" horiz-adv-x="1662" d="M184 0v1325h219l428 -684l429 684h219v-1325h-226v920l-315 -512h-213l-315 512v-920h-226z" />
<glyph unicode="N" horiz-adv-x="1507" d="M184 0v1325h222l704 -944v944h213v-1325h-211l-715 956v-956h-213z" />
<glyph unicode="O" horiz-adv-x="1406" d="M82 659q0 145 40 270.5t117.5 217.5t193.5 145.5t269 53.5q154 0 269.5 -49.5t194.5 -139.5t119 -216t40 -282q0 -129 -38 -250.5t-114.5 -217t-193.5 -153.5t-277 -58q-147 0 -261.5 50t-194.5 140t-122 215t-42 274zM326 659q0 -78 17 -160.5t60 -153.5t116 -116 t183 -45q111 0 185 45t117 116t60 154t17 160q0 80 -17 165t-60 156t-117 116t-185 45t-183.5 -45t-115.5 -116t-60 -156t-17 -165z" />
<glyph unicode="P" horiz-adv-x="1220" d="M184 0v1325h482q115 0 200.5 -35t142 -93t85 -132t28.5 -150q0 -78 -28.5 -151.5t-86 -132t-143.5 -94t-200 -35.5h-250v-502h-230zM414 694h250q55 0 96 19.5t67.5 50.5t40 69.5t13.5 79.5t-13.5 81t-40 71t-67.5 49.5t-96 18.5h-250v-439z" />
<glyph unicode="Q" horiz-adv-x="1406" d="M82 659q0 145 40 270.5t117.5 217.5t193.5 145.5t269 53.5q154 0 269.5 -49.5t194.5 -139.5t119 -216t40 -282q0 -109 -26.5 -212t-80 -191t-135.5 -153.5t-192 -98.5l248 -297h-291l-213 277q-131 10 -234.5 64t-174 143.5t-107.5 208t-37 259.5zM326 659 q0 -78 17 -160.5t60 -153.5t116 -116t183 -45q111 0 185 45t117 116t60 154t17 160q0 80 -17 165t-60 156t-117 116t-185 45t-183.5 -45t-115.5 -116t-60 -156t-17 -165z" />
<glyph unicode="R" horiz-adv-x="1243" d="M184 0v1325h482q115 0 200.5 -35t142 -92t85 -131t28.5 -149q0 -61 -17.5 -119t-52 -109t-87 -90t-121.5 -63l205 -353h153v-168q-39 -16 -75.5 -26t-82.5 -10q-61 0 -114 18t-94 94l-226 412h-196v-504h-230zM414 696h250q55 0 96 18.5t66.5 49.5t39 70.5t13.5 80.5 t-13.5 80t-39 70t-66.5 49.5t-96 18.5h-250v-437z" />
<glyph unicode="S" horiz-adv-x="989" d="M47 100l55 201q84 -55 171 -86t196 -31q90 0 146.5 35t56.5 115q0 41 -33 79t-80 72l-270 193q-78 55 -136.5 132t-58.5 175q0 162 110.5 261.5t323.5 99.5q100 0 187.5 -20.5t158.5 -55.5l-40 -215q-57 35 -135 60.5t-162 25.5q-102 0 -150.5 -39t-48.5 -92 q0 -51 31.5 -84t87.5 -72l282 -201q78 -53 127 -128.5t49 -174.5q0 -98 -36.5 -167.5t-98 -114.5t-143.5 -66.5t-174 -21.5q-51 0 -107.5 9t-112 25.5t-106.5 39t-90 46.5z" />
<glyph unicode="T" horiz-adv-x="1085" d="M31 1133v192h1024v-192h-398v-1133h-229v1133h-397z" />
<glyph unicode="U" horiz-adv-x="1390" d="M154 481v844h233v-850q0 -51 13.5 -102t48 -93t93 -69t148.5 -27q94 0 154.5 27t95.5 69t49.5 93t14.5 102v850h233v-844q0 -133 -41 -227t-114.5 -155.5t-173 -90t-216.5 -28.5q-115 0 -214 28.5t-170.5 90t-112.5 155.5t-41 227z" />
<glyph unicode="V" horiz-adv-x="1329" d="M20 1325h250l402 -1034l401 1034h236l-533 -1325h-227z" />
<glyph unicode="W" horiz-adv-x="1957" d="M31 1325h250l276 -1055l305 1055h248l317 -1055l263 1055h237l-366 -1325h-283l-303 1006l-281 -1006h-282z" />
<glyph unicode="X" horiz-adv-x="1298" d="M14 0l506 698l-446 627h288l310 -453l325 453h269l-473 -639l487 -686h-281l-354 512l-362 -512h-269z" />
<glyph unicode="Y" horiz-adv-x="1153" d="M0 1325h256l334 -590l334 590h229l-465 -819v-506h-229v510z" />
<glyph unicode="Z" horiz-adv-x="1120" d="M78 0v190l684 943h-670v192h942v-190l-678 -942h691v-193h-969z" />
<glyph unicode="[" horiz-adv-x="655" d="M205 -391v1837h391v-176h-197v-1493h197v-168h-391z" />
<glyph unicode="\" horiz-adv-x="819" d="M0 1438l631 -1532h188l-629 1532h-190z" />
<glyph unicode="]" horiz-adv-x="655" d="M59 -223v-168h391v1837h-391v-176h197v-1493h-197z" />
<glyph unicode="^" d="M143 702l326 623h188l326 -623h-207l-213 418l-215 -418h-205z" />
<glyph unicode="_" horiz-adv-x="1286" d="M0 -102h1286v-177h-1286v177z" />
<glyph unicode="`" horiz-adv-x="1024" d="M137 1444h291l182 -270h-200z" />
<glyph unicode="a" horiz-adv-x="1019" d="M86 274q0 104 47 169t119 102t158 50t163 13q14 0 40 -1t40 -3v86q0 45 -16 76t-45 49.5t-66 25.5t-77 7q-76 0 -151 -19.5t-118 -37.5l-28 182q57 27 147 44t186 17q98 0 170 -24.5t119 -68.5t69.5 -104.5t22.5 -131.5v-705h-204v135q-37 -82 -112 -118.5t-153 -36.5 q-68 0 -124 19t-98 57t-65.5 93.5t-23.5 124.5zM313 276q0 -51 35 -78.5t88 -27.5q45 0 84 17.5t66.5 47t43 68.5t15.5 84v45q-12 2 -35.5 2h-36.5q-53 0 -100 -8t-83 -27.5t-56.5 -49.5t-20.5 -73z" />
<glyph unicode="b" horiz-adv-x="1112" d="M147 379v1067h220v-512q45 51 117.5 75.5t142.5 24.5q74 0 146.5 -27.5t131 -89t95 -160t36.5 -239.5t-39 -242.5t-103.5 -168t-150.5 -97t-178 -30.5t-169 24.5t-132 74.5t-86 125t-31 175zM367 389q0 -100 53 -161.5t151 -61.5q45 0 87 18.5t75 59.5t53.5 107.5 t20.5 162.5q0 100 -20.5 164.5t-54.5 102.5t-75 52.5t-82 14.5q-39 0 -76.5 -14.5t-66.5 -43t-47 -70.5t-18 -97v-234z" />
<glyph unicode="c" horiz-adv-x="917" d="M76 508q0 131 39 229.5t105.5 165t156.5 100t194 33.5q63 0 129 -10t134 -35l-29 -186q-57 23 -111.5 32t-105.5 9q-123 0 -203 -79t-80 -259q0 -90 23.5 -153.5t64.5 -104.5t94.5 -59.5t114.5 -18.5q109 0 223 51l37 -184q-74 -31 -146.5 -45t-142.5 -14 q-104 0 -195 33.5t-157.5 99t-105.5 165t-39 230.5z" />
<glyph unicode="d" horiz-adv-x="1112" d="M76 518q0 141 39 239.5t101.5 160t138 89t149.5 27.5q164 0 241 -90v502h220v-993q0 -117 -31 -206t-87 -148.5t-133 -89t-169 -29.5q-84 0 -168 30.5t-150.5 97t-108.5 168t-42 242.5zM305 514q0 -96 20.5 -162.5t53.5 -107.5t75 -59.5t85 -18.5q100 0 153 69.5 t53 215.5v172q0 55 -18 97t-48 70.5t-68 43t-76 14.5q-41 0 -81 -14.5t-74 -52.5t-54.5 -102.5t-20.5 -164.5z" />
<glyph unicode="e" horiz-adv-x="1024" d="M76 522q0 117 31.5 211t91 161t142.5 103.5t185 36.5q199 0 302.5 -111.5t119.5 -310.5v-172h-639q8 -76 34 -128t64.5 -83.5t89 -46t107.5 -14.5q63 0 132 14.5t134 40.5l37 -184q-152 -61 -301 -62q-109 0 -205 34t-168.5 101.5t-114.5 170t-42 239.5zM309 612h412 q0 115 -45 175.5t-150 60.5q-98 0 -152.5 -67.5t-64.5 -168.5z" />
<glyph unicode="f" horiz-adv-x="696" d="M14 834v180h170v92q0 98 30 167.5t82 113t121.5 63.5t151.5 20q47 0 86 -5t82 -15l-28 -182q-33 8 -66 12t-68 4q-78 0 -123.5 -32.5t-45.5 -129.5v-108h278v-180h-278v-834h-222v834h-170z" />
<glyph unicode="g" horiz-adv-x="1089" d="M76 494q0 160 42 264t110.5 165.5t154.5 86t172 24.5q184 0 297 -99t113 -284v-643q0 -109 -34 -188.5t-93.5 -132t-141.5 -78t-180 -25.5q-49 0 -100 8.5t-100.5 23.5t-94.5 35.5t-78 45.5l62 188q63 -47 145 -78.5t158 -31.5q106 0 171.5 54t65.5 173v25 q-55 -25 -113.5 -36t-111.5 -11q-88 0 -169 32.5t-142.5 98t-97 161t-35.5 222.5zM305 504q0 -94 22.5 -158.5t60.5 -103.5t86 -55.5t99 -16.5q45 0 85 11.5t87 27.5v409q0 102 -51 166t-149 64q-49 0 -93 -18.5t-76 -60.5t-51.5 -107.5t-19.5 -157.5z" />
<glyph unicode="h" d="M166 0v1446h217v-516q35 47 101.5 75.5t144.5 28.5q70 0 132 -21.5t109.5 -67.5t75 -117.5t27.5 -174.5v-653h-219v641q0 57 -15.5 97t-41 64.5t-60.5 35t-72 10.5q-78 0 -130 -55.5t-52 -155.5v-637h-217z" />
<glyph unicode="i" horiz-adv-x="552" d="M143 1292q0 55 35 94t96 39q66 0 102 -38.5t36 -94.5q0 -51 -36 -88t-102 -37q-61 0 -96 37t-35 88zM166 0v1014h219v-1014h-219z" />
<glyph unicode="j" horiz-adv-x="552" d="M-166 -350l62 186q80 -49 161 -49q59 0 84 35t25 133v1059h219v-1051q0 -186 -69.5 -282.5t-239.5 -96.5q-74 0 -137.5 18.5t-104.5 47.5zM145 1292q0 55 34 94t97 39q66 0 102 -38.5t36 -94.5q0 -51 -36 -88t-102 -37q-63 0 -97 37t-34 88z" />
<glyph unicode="k" horiz-adv-x="1046" d="M166 0v1446h219v-819l352 387h273l-392 -424q104 -145 213 -295t213 -295h-268l-309 430l-82 -88v-342h-219z" />
<glyph unicode="l" horiz-adv-x="550" d="M166 0v1446h219v-1446h-219z" />
<glyph unicode="m" horiz-adv-x="1667" d="M150 0v641q0 100 31.5 175t84.5 123t124 71.5t151 23.5q86 0 161.5 -27.5t133.5 -95.5q55 68 128.5 95.5t159.5 27.5q80 0 152 -23.5t125 -71.5t85 -123t32 -175v-641h-220v649q0 94 -51 146.5t-123 52.5q-37 0 -69.5 -13.5t-58 -39t-41 -62.5t-15.5 -84v-649h-219v649 q0 94 -54.5 146.5t-125.5 52.5q-72 0 -123 -52.5t-51 -146.5v-649h-217z" />
<glyph unicode="n" horiz-adv-x="1114" d="M154 0v649q0 100 33.5 174t89 120t128 68.5t152.5 22.5t152.5 -18.5t128 -62.5t89.5 -118.5t34 -185.5v-649h-216v662q0 47 -16 81.5t-43 58t-60.5 35t-68.5 11.5t-68.5 -11.5t-60.5 -35t-42 -58t-15 -81.5v-662h-217z" />
<glyph unicode="o" horiz-adv-x="1058" d="M74 508q0 131 34.5 230.5t96 165t144.5 99t179 33.5q207 0 331 -133t124 -395q0 -131 -35 -230.5t-96 -166t-144 -100.5t-180 -34q-96 0 -179 34t-144.5 100.5t-96 166t-34.5 230.5zM297 508q0 -156 54.5 -249t176.5 -93q123 0 177.5 93t54.5 249t-54.5 248t-177.5 92 t-177 -92t-54 -248z" />
<glyph unicode="p" horiz-adv-x="1112" d="M147 -391v1038q0 92 30 164t83 122t128 75.5t167 25.5q100 0 188 -22.5t153 -82t102.5 -161.5t37.5 -262q0 -127 -35.5 -224.5t-97 -165t-142.5 -102t-169 -34.5q-53 0 -111.5 11t-113.5 36v-418h-220zM367 205q106 -39 190 -39q51 0 97 17.5t80 57.5t53.5 104.5 t19.5 158.5q0 92 -19.5 157.5t-52.5 107.5t-77 60.5t-93 18.5q-96 0 -147 -58.5t-51 -158.5v-426z" />
<glyph unicode="q" horiz-adv-x="1112" d="M76 494q0 152 42 255t110.5 166.5t154.5 91t172 27.5q184 0 297 -99t113 -284v-1042h-220v418q-53 -25 -111.5 -36t-111.5 -11q-88 0 -169 32.5t-142 98t-98 161t-37 222.5zM305 504q0 -94 22.5 -158.5t60.5 -104.5t86 -57.5t99 -17.5q45 0 85 11t87 28v418 q0 102 -51 163.5t-149 61.5q-49 0 -93 -18.5t-76 -60.5t-51.5 -107.5t-19.5 -157.5z" />
<glyph unicode="r" horiz-adv-x="733" d="M156 0v1014h219v-203q16 37 47 77t75 72.5t98 53t120 20.5v-233q-74 0 -136.5 -25.5t-107.5 -75t-70.5 -121t-25.5 -163.5v-416h-219z" />
<glyph unicode="s" horiz-adv-x="894" d="M111 76l34 186q70 -47 147 -72.5t161 -25.5q59 0 94 21.5t35 74.5q0 27 -15.5 49.5t-42 42t-59.5 39t-70 41.5q-47 31 -97 61.5t-92 67.5t-68.5 83t-26.5 106q0 129 93 206.5t265 77.5q90 0 167 -20.5t134 -48.5l-41 -195q-47 29 -115.5 53.5t-138.5 24.5 q-59 0 -102 -20.5t-43 -71.5q0 -18 14 -38t39 -38t55.5 -35.5t61.5 -36.5q49 -27 102 -60.5t98 -74.5t74 -90.5t29 -106.5q0 -76 -30 -132t-80 -93t-116.5 -54t-140.5 -17q-88 0 -175 27.5t-150 68.5z" />
<glyph unicode="t" horiz-adv-x="731" d="M25 836v178h170v231l219 29v-260h260v-178h-260v-508q0 -47 12 -76t35.5 -45.5t54.5 -22.5t68 -6q49 0 98 6v-190q-37 -6 -68.5 -10t-72.5 -4q-74 0 -137.5 18t-109.5 58t-72.5 104.5t-26.5 154.5v521h-170z" />
<glyph unicode="u" horiz-adv-x="1093" d="M143 360v654h215v-660q0 -94 51.5 -141t137.5 -47t137 47t51 141v660h215v-654q0 -106 -33.5 -178.5t-89 -118t-128 -64.5t-152.5 -19t-152.5 19t-128 64.5t-89.5 118t-34 178.5z" />
<glyph unicode="v" horiz-adv-x="974" d="M0 1014h229l273 -768l264 768h209l-361 -1014h-241z" />
<glyph unicode="w" horiz-adv-x="1654" d="M146 373q0 -100 31.5 -175t84.5 -123t124 -71.5t151 -23.5q86 0 161.5 27.5t133.5 95.5q55 -68 128.5 -95.5t159.5 -27.5q80 0 152 23.5t125 71.5t85 123t32 175v641h-220v-649q0 -94 -51 -146.5t-123 -52.5q-37 0 -69.5 13.5t-58 39t-41 62.5t-15.5 84v649h-219v-649 q0 -94 -54.5 -146.5t-125.5 -52.5q-72 0 -123 52.5t-51 146.5v649h-217v-641z" />
<glyph unicode="x" horiz-adv-x="1015" d="M4 0l381 528l-340 486h252l217 -320l217 320h250l-346 -500q74 -102 129 -179t98 -137.5t77 -107.5t67 -90h-252l-246 352l-250 -352h-254z" />
<glyph unicode="y" horiz-adv-x="1136" d="M143 379v635h219v-602q0 -129 51.5 -187.5t143.5 -58.5q41 0 92 11t105 30v807h219v-1006q0 -109 -34 -188.5t-93.5 -132t-141 -78t-180.5 -25.5q-49 0 -100 8.5t-100.5 23.5t-94.5 35.5t-77 45.5l61 188q63 -47 145 -78.5t158 -31.5q106 0 172 54t66 173v25 q-55 -25 -111.5 -36t-110.5 -11q-178 0 -283.5 102t-105.5 297z" />
<glyph unicode="z" horiz-adv-x="942" d="M88 0v160l485 663h-471v191h738v-168l-467 -656h485v-190h-770z" />
<glyph unicode="{" horiz-adv-x="655" d="M63 418v196q92 2 130 33t38 96q0 72 -11 158t-11 186q0 182 89 271.5t241 89.5q29 0 50 -3t48 -7v-181q-45 10 -86 11q-82 0 -115 -46t-33 -126q0 -90 11.5 -177.5t11.5 -179.5q0 -98 -38 -149t-118 -74q80 -23 118 -74t38 -149q0 -92 -11.5 -179t-11.5 -177 q0 -80 33 -126.5t115 -46.5q41 0 86 11v-181q-27 -4 -48.5 -7t-49.5 -3q-152 0 -241 89t-89 272q0 100 11 186t11 158q0 66 -37.5 96.5t-130.5 32.5z" />
<glyph unicode="|" horiz-adv-x="526" d="M164 -410v2048h198v-2048h-198z" />
<glyph unicode="}" horiz-adv-x="655" d="M18 -225v-181q27 -4 48.5 -7t49.5 -3q152 0 241 89t89 272q0 100 -11 186t-11 158q0 66 37.5 96.5t130.5 32.5v196q-92 2 -130 33t-38 96q0 72 11 158t11 186q0 182 -89 271.5t-241 89.5q-29 0 -50 -3t-48 -7v-181q45 10 86 11q82 0 115 -46t33 -126q0 -90 -11.5 -177.5 t-11.5 -179.5q0 -98 38 -149t118 -74q-80 -23 -118 -74t-38 -149q0 -92 11.5 -179t11.5 -177q0 -80 -33 -126.5t-115 -46.5q-41 0 -86 11z" />
<glyph unicode="~" d="M84 571q31 98 95.5 161t185.5 63q51 0 105 -15.5t105.5 -35t96.5 -35t80 -15.5q47 0 75.5 27t49.5 82l163 -70q-31 -98 -97 -161.5t-187 -63.5q-53 0 -107.5 15.5t-105.5 35t-95.5 34.5t-74.5 15q-49 0 -77 -25.5t-48 -80.5z" />
<glyph unicode="&#xa1;" horiz-adv-x="563" d="M141 891q0 -66 39 -104.5t109 -38.5q66 0 104.5 38.5t38.5 104.5q0 70 -39 106.5t-104 36.5q-70 0 -109 -36.5t-39 -106.5zM160 -311h256l-25 917h-207z" />
<glyph unicode="&#xa2;" d="M145 526q0 102 26 185.5t71 147t108.5 106.5t138.5 65v295h162v-270h15q66 0 134 -10.5t140 -34.5l-29 -191q-59 23 -117.5 32t-111.5 9q-66 0 -120 -18.5t-93 -58.5t-61.5 -103.5t-22.5 -153.5t24.5 -152.5t67.5 -102.5t100.5 -58t120.5 -18q113 0 234 51l39 -189 q-78 -31 -155 -45t-148 -14h-17v-250h-162v275q-76 23 -139 64.5t-108 105t-71 146.5t-26 187z" />
<glyph unicode="&#xa3;" d="M78 604v162h172v158q0 84 24.5 160.5t78 135t137 92.5t204.5 34q123 0 204 -21.5t157 -62.5l-41 -205q-57 37 -137 60.5t-170 23.5q-96 0 -157 -52.5t-61 -146.5v-176h449v-162h-449v-117q0 -86 -21.5 -164.5t-74.5 -121.5h643v-201h-921v170q82 59 107.5 134t25.5 181 v119h-170z" />
<glyph unicode="&#xa5;" d="M6 1325h256l313 -547l314 547h229l-352 -610h274v-162h-366v-553h-230v553h-358v162h268z" />
<glyph unicode="&#xa6;" horiz-adv-x="526" d="M164 -410v822h198v-822h-198zM164 817v821h198v-821h-198z" />
<glyph unicode="&#xa7;" horiz-adv-x="1024" d="M80 -78l49 176q72 -47 156 -74.5t170 -27.5q78 0 130 30.5t52 100.5q0 37 -26.5 67.5t-69.5 59.5l-281 176q-72 45 -123 114.5t-51 155.5q0 205 205 256q-53 41 -88 102.5t-35 129.5q0 143 102.5 230t290.5 87q94 0 172 -20.5t150 -52.5l-37 -191q-49 33 -123 58.5 t-152 25.5q-90 0 -134 -34t-44 -81q0 -35 22.5 -70.5t73.5 -66.5l285 -180q72 -45 112 -111.5t40 -152.5q0 -111 -51.5 -170.5t-135.5 -85.5q49 -43 77 -99.5t28 -128.5q0 -86 -32 -147t-87 -102t-128 -60.5t-153 -19.5q-90 0 -191 30.5t-173 75.5zM311 723q0 -35 22.5 -71 t74.5 -66l159 -101q66 6 109 37t43 92q0 37 -26.5 68t-69.5 59l-154 97q-80 -4 -119 -37t-39 -78z" />
<glyph unicode="&#xa8;" horiz-adv-x="1024" d="M201 1309q0 49 33.5 79.5t89.5 30.5q55 0 88.5 -30.5t33.5 -79.5t-33.5 -80t-88.5 -31t-89 31t-34 80zM578 1309q0 49 33.5 79.5t88.5 30.5t89 -30.5t34 -79.5t-33.5 -80t-89.5 -31q-55 0 -88.5 31t-33.5 80z" />
<glyph unicode="&#xa9;" horiz-adv-x="1507" d="M82 662q0 160 51 286.5t140 214.5t212 135.5t269 47.5q143 0 267 -47.5t213 -135.5t140 -214.5t51 -286.5t-51 -287t-140 -215t-213 -134t-267 -46q-145 0 -268.5 46t-212.5 134t-140 215t-51 287zM197 662q0 -135 42 -240t115.5 -177.5t176 -110.5t223.5 -38t223 38 t176 110.5t116 177.5t42 240t-42 240.5t-116 178t-176.5 110.5t-222.5 38q-121 0 -223.5 -38t-176 -110.5t-115.5 -178t-42 -240.5zM414 662q0 104 34.5 176.5t90 120t125 69t139.5 21.5q76 0 131 -14.5t96 -35.5l-33 -145q-39 18 -87 27.5t-95 9.5q-43 0 -83 -12.5 t-70.5 -40t-49 -71.5t-18.5 -105q0 -68 19.5 -113t50 -71.5t71.5 -38t84 -11.5q47 0 97.5 12.5t91.5 32.5l43 -145q-43 -27 -105.5 -43.5t-138.5 -16.5q-70 0 -139.5 21.5t-126 69t-92 122.5t-35.5 181z" />
<glyph unicode="&#xaa;" horiz-adv-x="675" d="M84 936q0 49 21.5 83t57.5 54.5t82 29.5t95 9h28.5t28.5 -2v31q0 43 -28.5 59.5t-81.5 16.5q-41 0 -83 -9.5t-65 -17.5l-22 129q37 12 88 19.5t100 7.5q47 0 90 -9.5t77 -31t53.5 -58.5t19.5 -92v-369h-125l-6 76q-23 -35 -63 -61.5t-95 -26.5q-72 0 -122 44t-50 118z M240 942q0 -25 14 -37t37 -12q33 0 63.5 28t30.5 83q-10 2 -19.5 2h-19.5q-41 0 -73.5 -14.5t-32.5 -49.5z" />
<glyph unicode="&#xab;" horiz-adv-x="1228" d="M37 555l348 381h233l-323 -381l323 -383h-233zM610 555l348 381h233l-323 -381l323 -383h-233z" />
<glyph unicode="&#xac;" d="M113 762v190h899v-596h-191v406h-708z" />
<glyph unicode="&#xad;" horiz-adv-x="819" d="M141 455v202h537v-202h-537z" />
<glyph unicode="&#xae;" horiz-adv-x="1024" d="M70 903q0 98 32.5 180t91 140.5t140.5 90.5t180 32t180 -32t140.5 -90.5t91 -140.5t32.5 -180t-32.5 -180t-91 -140.5t-140.5 -91t-180 -32.5t-180 32.5t-140.5 91t-91 140.5t-32.5 180zM178 903q0 -154 91 -247t245 -93q76 0 137.5 24.5t105.5 69.5t68.5 107.5 t24.5 138.5t-24.5 137.5t-68.5 106.5t-105.5 69.5t-137.5 24.5q-154 0 -245 -93t-91 -245zM330 690v440h198q78 0 130.5 -36.5t52.5 -106.5q0 -53 -23.5 -80.5t-46.5 -40.5l51 -88h41v-86q-16 -4 -36.5 -6t-43.5 -2q-41 0 -62.5 19.5t-35.5 50.5l-39 77h-55v-141h-131z M461 924h53q23 0 41 14t18 43q0 23 -15 36t-40 13h-57v-106z" />
<glyph unicode="&#xaf;" horiz-adv-x="1024" d="M246 1235v162h532v-162h-532z" />
<glyph unicode="&#xb0;" horiz-adv-x="675" d="M88 1098q0 51 19.5 97t53.5 80t79 53.5t98 19.5q51 0 97 -19.5t80 -53.5t53.5 -80t19.5 -97q0 -53 -19.5 -98.5t-53.5 -79t-80 -53t-97 -19.5q-53 0 -98 19.5t-79 53t-53.5 78.5t-19.5 99zM217 1098q0 -55 33 -92t88 -37t88 36.5t33 92.5q0 55 -33 92t-88 37t-88 -37 t-33 -92z" />
<glyph unicode="&#xb1;" d="M113 0v190h899v-190h-899zM113 608v191h346v329h207v-329h346v-191h-346v-329h-207v329h-346z" />
<glyph unicode="&#xb2;" horiz-adv-x="716" d="M88 606v117l252 258q35 35 59.5 67.5t24.5 67.5q0 39 -32 53.5t-73 14.5q-47 0 -94 -17.5t-75 -42.5l-56 152q35 27 97.5 48.5t146.5 21.5q129 0 208 -57.5t79 -166.5q0 -41 -13.5 -75.5t-35 -65.5t-49 -57.5t-54.5 -51.5l-125 -112h287v-154h-547z" />
<glyph unicode="&#xb3;" horiz-adv-x="716" d="M70 647l45 150q55 -35 108 -46.5t101 -11.5q53 0 83.5 18.5t30.5 57.5t-28.5 58.5t-79.5 19.5h-103v139h97q41 0 69.5 17.5t28.5 58.5q-1 76 -107 76q-53 0 -101 -17.5t-87 -42.5l-55 152q43 29 110.5 49.5t151.5 20.5q127 0 208 -53.5t81 -162.5q0 -57 -31 -96t-78 -55 q59 -20 92 -65.5t33 -104.5q0 -55 -24.5 -98t-65.5 -71t-95.5 -42t-115.5 -14q-78 0 -147.5 17t-120.5 46z" />
<glyph unicode="&#xb4;" horiz-adv-x="1024" d="M406 1174l182 270h291l-273 -270h-200z" />
<glyph unicode="&#xb6;" horiz-adv-x="1292" d="M61 915q0 76 29 150t85 132t142 93t201 35h256v-1325h-188v502h-66q-115 0 -201 35.5t-143 94t-86 132.5t-29 151zM920 0v1325h188v-1325h-188z" />
<glyph unicode="&#xb7;" horiz-adv-x="512" d="M111 547q0 66 38.5 104.5t108.5 38.5q66 0 104.5 -38.5t38.5 -104.5q0 -70 -38.5 -106.5t-104.5 -36.5q-70 0 -108.5 36.5t-38.5 106.5z" />
<glyph unicode="&#xb8;" horiz-adv-x="1024" d="M313 -449l41 138q23 -10 52.5 -15.5t56.5 -5.5q39 0 67.5 14.5t28.5 43.5q0 35 -36 47t-74 12q-23 0 -40.5 -1t-31.5 -3l74 219h172l-39 -100q80 -12 117.5 -59.5t37.5 -119.5q0 -53 -23.5 -91t-60.5 -62.5t-85 -35.5t-97 -11q-43 0 -84 7t-76 23z" />
<glyph unicode="&#xb9;" horiz-adv-x="716" d="M92 600v143h189v412l-189 -57v151l223 76h158v-582h160v-143h-541z" />
<glyph unicode="&#xba;" horiz-adv-x="675" d="M70 1057q0 78 21.5 131t57 87t85 49t104.5 15t104.5 -15t85 -49t57 -87t21.5 -131t-21.5 -132.5t-57 -88t-85 -49t-104.5 -15.5t-104.5 15.5t-85 49t-57 88t-21.5 132.5zM233 1057q0 -92 33 -129t72 -37t71.5 37t32.5 129q0 90 -32.5 127t-71.5 37t-72 -37t-33 -127z" />
<glyph unicode="&#xbb;" horiz-adv-x="1228" d="M37 172h233l348 383l-348 381h-233l323 -381zM611 172h233l348 383l-348 381h-233l323 -381z" />
<glyph unicode="&#xbc;" horiz-adv-x="1638" d="M90 600v143h189v412l-189 -57v151l223 76h158v-582h160v-143h-541zM315 0l899 1325h195l-899 -1325h-195zM946 166v117l291 481h250v-453h82v-145h-82v-166h-191v166h-350zM1137 311h159v260z" />
<glyph unicode="&#xbd;" horiz-adv-x="1638" d="M90 600v143h189v412l-189 -57v151l223 76h158v-582h160v-143h-541zM315 0l899 1325h195l-899 -1325h-195zM1049 0v117l251 258q35 35 59.5 67.5t24.5 67.5q0 39 -31.5 53.5t-72.5 14.5q-47 0 -94 -17.5t-76 -42.5l-55 152q35 27 97 48t146 21q129 0 208 -57t79 -166 q0 -41 -13 -75.5t-34.5 -65.5t-49.5 -57.5t-54 -51.5l-125 -112h286v-154h-546z" />
<glyph unicode="&#xbe;" horiz-adv-x="1638" d="M109 647l45 150q55 -35 108 -46.5t100 -11.5q53 0 84 18.5t31 57.5t-28.5 58.5t-79.5 19.5h-103v139h96q41 0 70 17.5t29 58.5q-1 76 -107 76q-53 0 -101 -17.5t-87 -42.5l-55 152q43 29 110.5 49.5t151.5 20.5q127 0 208 -53.5t81 -162.5q0 -57 -31 -96t-78 -55 q59 -20 92 -65.5t33 -104.5q0 -55 -24.5 -98t-65.5 -71t-95.5 -42t-115.5 -14q-78 0 -147.5 17t-120.5 46zM322 0l899 1325h194l-899 -1325h-194zM926 166v117l288 481h250v-453h86v-145h-86v-166h-188v166h-350zM1116 311h160v260z" />
<glyph unicode="&#xbf;" horiz-adv-x="655" d="M6 -12q0 94 44 164.5t97 131t97.5 120t44.5 129.5q0 20 -2.5 35.5t-6.5 37.5h201q10 -31 13 -50t3 -52q0 -100 -39.5 -166.5t-88 -120t-88.5 -101.5t-40 -110q0 -74 52.5 -104.5t128.5 -30.5q68 0 129 18.5t102 41.5l59 -179q-61 -41 -146 -62.5t-185 -21.5 q-180 0 -277.5 86t-97.5 234zM229 891q0 70 39 106.5t105 36.5q70 0 108.5 -36.5t38.5 -106.5q0 -66 -39 -104.5t-108 -38.5q-66 0 -105 38.5t-39 104.5z" />
<glyph unicode="&#xc0;" horiz-adv-x="1296" d="M0 0l530 1325h236l530 -1325h-260l-118 303h-566l-116 -303h-236zM250 1755h291l182 -270h-200zM422 500h422l-213 561z" />
<glyph unicode="&#xc1;" horiz-adv-x="1296" d="M0 0l530 1325h236l530 -1325h-260l-118 303h-566l-116 -303h-236zM422 500h422l-213 561zM512 1485l182 270h291l-273 -270h-200z" />
<glyph unicode="&#xc2;" horiz-adv-x="1296" d="M0 0l530 1325h236l530 -1325h-260l-118 303h-566l-116 -303h-236zM299 1485l215 270h230l215 -270h-209l-121 135l-121 -135h-209zM422 500h422l-213 561z" />
<glyph unicode="&#xc3;" horiz-adv-x="1296" d="M0 0l530 1325h236l530 -1325h-260l-118 303h-566l-116 -303h-236zM307 1507q0 113 53.5 186.5t157.5 73.5q33 0 65 -11t59.5 -25.5t51 -26t41.5 -11.5q29 0 40.5 22.5t11.5 51.5h165q0 -113 -53 -186.5t-157 -73.5q-31 0 -62 11.5t-59.5 25.5t-53 25.5t-43.5 11.5 q-29 0 -40 -22.5t-11 -51.5h-166zM422 500h422l-213 561z" />
<glyph unicode="&#xc4;" horiz-adv-x="1296" d="M0 0l530 1325h236l530 -1325h-260l-118 303h-566l-116 -303h-236zM318 1620q0 49 33.5 79.5t89.5 30.5q55 0 88.5 -30.5t33.5 -79.5t-33.5 -80t-88.5 -31t-89 31t-34 80zM422 500h422l-213 561zM695 1620q0 49 33.5 79.5t88.5 30.5t89 -30.5t34 -79.5t-33.5 -80 t-89.5 -31q-55 0 -88.5 31t-33.5 80z" />
<glyph unicode="&#xc5;" horiz-adv-x="1296" d="M0 0l530 1325h236l530 -1325h-260l-118 303h-566l-116 -303h-236zM400 1634q0 78 63.5 127t165.5 49t165.5 -49t63.5 -127t-63.5 -127t-165.5 -49t-165.5 49t-63.5 127zM422 500h422l-213 561zM555 1634q0 -31 19.5 -50.5t54.5 -19.5t54.5 19.5t19.5 50.5t-19.5 50.5 t-54.5 19.5t-54.5 -19.5t-19.5 -50.5z" />
<glyph unicode="&#xc6;" horiz-adv-x="1685" d="M-174 0l854 1325h897v-192h-590v-328h553v-193h-553v-243q0 -35 9.5 -67t30 -56.5t55 -38.5t87.5 -14h424v-193h-430q-109 0 -184.5 20.5t-122.5 60.5t-70.5 98.5t-27.5 133.5h-475l-197 -313h-260zM399 500h357v569z" />
<glyph unicode="&#xc7;" horiz-adv-x="1177" d="M82 662q0 168 50 295.5t136 213.5t200 130.5t241 44.5q125 0 216 -20.5t162 -55.5l-40 -211q-57 35 -143.5 60.5t-170.5 25.5t-157.5 -25.5t-129 -83t-88 -149.5t-32.5 -225t32.5 -225.5t88 -150t129 -82t157.5 -24.5q74 0 165 23.5t167 60.5l53 -186 q-86 -47 -190.5 -71.5t-208.5 -26.5l-31 -80q80 -12 118 -59.5t38 -119.5q0 -53 -23.5 -91t-60.5 -62.5t-85 -35.5t-97 -11q-43 0 -84 7t-76 23l41 138q23 -10 52.5 -15.5t55.5 -5.5q39 0 68 14.5t29 43.5q0 35 -36 47t-75 12q-23 0 -40 -1t-32 -3l72 217q-100 23 -186 76 t-149.5 137t-99.5 196.5t-36 254.5z" />
<glyph unicode="&#xc8;" horiz-adv-x="1093" d="M164 365v960h821v-192h-590v-328h553v-193h-553v-243q0 -35 9.5 -67t30 -56.5t55 -38.5t88.5 -14h423v-193h-409q-117 0 -199 24.5t-133 70.5t-73.5 113.5t-22.5 156.5zM225 1755h291l182 -270h-200z" />
<glyph unicode="&#xc9;" horiz-adv-x="1093" d="M164 365v960h821v-192h-590v-328h553v-193h-553v-243q0 -35 9.5 -67t30 -56.5t55 -38.5t88.5 -14h423v-193h-409q-117 0 -199 24.5t-133 70.5t-73.5 113.5t-22.5 156.5zM484 1485l182 270h291l-273 -270h-200z" />
<glyph unicode="&#xca;" horiz-adv-x="1093" d="M164 365v960h821v-192h-590v-328h553v-193h-553v-243q0 -35 9.5 -67t30 -56.5t55 -38.5t88.5 -14h423v-193h-409q-117 0 -199 24.5t-133 70.5t-73.5 113.5t-22.5 156.5zM248 1485l215 270h230l215 -270h-209l-121 135l-121 -135h-209z" />
<glyph unicode="&#xcb;" horiz-adv-x="1093" d="M164 365v960h821v-192h-590v-328h553v-193h-553v-243q0 -35 9.5 -67t30 -56.5t55 -38.5t88.5 -14h423v-193h-409q-117 0 -199 24.5t-133 70.5t-73.5 113.5t-22.5 156.5zM267 1620q0 49 33.5 79.5t89.5 30.5q55 0 88.5 -30.5t33.5 -79.5t-33.5 -80t-88.5 -31t-89 31 t-34 80zM644 1620q0 49 33.5 79.5t88.5 30.5t89 -30.5t34 -79.5t-33.5 -80t-89.5 -31q-55 0 -88.5 31t-33.5 80z" />
<glyph unicode="&#xcc;" horiz-adv-x="600" d="M-70 1755h291l182 -270h-200zM184 0v1325h232v-1325h-232z" />
<glyph unicode="&#xcd;" horiz-adv-x="600" d="M184 0v1325h232v-1325h-232zM195 1485l182 270h291l-273 -270h-200z" />
<glyph unicode="&#xce;" horiz-adv-x="600" d="M-29 1485l215 270h230l215 -270h-209l-121 135l-121 -135h-209zM184 0v1325h232v-1325h-232z" />
<glyph unicode="&#xcf;" horiz-adv-x="600" d="M-10 1620q0 49 33.5 79.5t89.5 30.5q55 0 88.5 -30.5t33.5 -79.5t-33.5 -80t-88.5 -31t-89 31t-34 80zM184 0v1325h232v-1325h-232zM367 1620q0 49 33.5 79.5t88.5 30.5t89 -30.5t34 -79.5t-33.5 -80t-89.5 -31q-55 0 -88.5 31t-33.5 80z" />
<glyph unicode="&#xd0;" horiz-adv-x="1327" d="M8 561v191h156v573h407q182 0 310.5 -42t209 -125t117.5 -207t37 -287q0 -205 -53 -334t-144.5 -203t-214 -100.5t-262.5 -26.5h-407v561h-156zM395 193h135q109 0 196 17t148.5 67.5t94 141.5t32.5 240q0 154 -32.5 247t-94 143.5t-149.5 67t-197 16.5h-133v-381h322 v-191h-322v-368z" />
<glyph unicode="&#xd1;" horiz-adv-x="1507" d="M184 0v1325h222l704 -944v944h213v-1325h-211l-715 956v-956h-213zM430 1507q0 113 53.5 186.5t157.5 73.5q33 0 65 -11t59.5 -25.5t51 -26t41.5 -11.5q29 0 40.5 22.5t11.5 51.5h165q0 -113 -53 -186.5t-157 -73.5q-31 0 -62 11.5t-59.5 25.5t-53 25.5t-43.5 11.5 q-29 0 -40 -22.5t-11 -51.5h-166z" />
<glyph unicode="&#xd2;" horiz-adv-x="1406" d="M82 659q0 145 40 270.5t117.5 217.5t193.5 145.5t269 53.5q154 0 269.5 -49.5t194.5 -139.5t119 -216t40 -282q0 -129 -38 -250.5t-114.5 -217t-193.5 -153.5t-277 -58q-147 0 -261.5 50t-194.5 140t-122 215t-42 274zM326 659q0 -78 17 -160.5t60 -153.5t116 -116 t183 -45q111 0 185 45t117 116t60 154t17 160q0 80 -17 165t-60 156t-117 116t-185 45t-183.5 -45t-115.5 -116t-60 -156t-17 -165zM356 1755h291l182 -270h-200z" />
<glyph unicode="&#xd3;" horiz-adv-x="1406" d="M82 659q0 145 40 270.5t117.5 217.5t193.5 145.5t269 53.5q154 0 269.5 -49.5t194.5 -139.5t119 -216t40 -282q0 -129 -38 -250.5t-114.5 -217t-193.5 -153.5t-277 -58q-147 0 -261.5 50t-194.5 140t-122 215t-42 274zM326 659q0 -78 17 -160.5t60 -153.5t116 -116 t183 -45q111 0 185 45t117 116t60 154t17 160q0 80 -17 165t-60 156t-117 116t-185 45t-183.5 -45t-115.5 -116t-60 -156t-17 -165zM594 1485l182 270h291l-273 -270h-200z" />
<glyph unicode="&#xd4;" horiz-adv-x="1406" d="M82 659q0 145 40 270.5t117.5 217.5t193.5 145.5t269 53.5q154 0 269.5 -49.5t194.5 -139.5t119 -216t40 -282q0 -129 -38 -250.5t-114.5 -217t-193.5 -153.5t-277 -58q-147 0 -261.5 50t-194.5 140t-122 215t-42 274zM326 659q0 -78 17 -160.5t60 -153.5t116 -116 t183 -45q111 0 185 45t117 116t60 154t17 160q0 80 -17 165t-60 156t-117 116t-185 45t-183.5 -45t-115.5 -116t-60 -156t-17 -165zM372 1485l215 270h230l215 -270h-209l-121 135l-121 -135h-209z" />
<glyph unicode="&#xd5;" horiz-adv-x="1406" d="M82 659q0 145 40 270.5t117.5 217.5t193.5 145.5t269 53.5q154 0 269.5 -49.5t194.5 -139.5t119 -216t40 -282q0 -129 -38 -250.5t-114.5 -217t-193.5 -153.5t-277 -58q-147 0 -261.5 50t-194.5 140t-122 215t-42 274zM326 659q0 -78 17 -160.5t60 -153.5t116 -116 t183 -45q111 0 185 45t117 116t60 154t17 160q0 80 -17 165t-60 156t-117 116t-185 45t-183.5 -45t-115.5 -116t-60 -156t-17 -165zM381 1507q0 113 53.5 186.5t157.5 73.5q33 0 65 -11t59.5 -25.5t51 -26t41.5 -11.5q29 0 40.5 22.5t11.5 51.5h165q0 -113 -53 -186.5 t-157 -73.5q-31 0 -62 11.5t-59.5 25.5t-53 25.5t-43.5 11.5q-29 0 -40 -22.5t-11 -51.5h-166z" />
<glyph unicode="&#xd6;" horiz-adv-x="1406" d="M82 659q0 145 40 270.5t117.5 217.5t193.5 145.5t269 53.5q154 0 269.5 -49.5t194.5 -139.5t119 -216t40 -282q0 -129 -38 -250.5t-114.5 -217t-193.5 -153.5t-277 -58q-147 0 -261.5 50t-194.5 140t-122 215t-42 274zM326 659q0 -78 17 -160.5t60 -153.5t116 -116 t183 -45q111 0 185 45t117 116t60 154t17 160q0 80 -17 165t-60 156t-117 116t-185 45t-183.5 -45t-115.5 -116t-60 -156t-17 -165zM391 1620q0 49 33.5 79.5t89.5 30.5q55 0 88.5 -30.5t33.5 -79.5t-33.5 -80t-88.5 -31t-89 31t-34 80zM768 1620q0 49 33.5 79.5t88.5 30.5 t89 -30.5t34 -79.5t-33.5 -80t-89.5 -31q-55 0 -88.5 31t-33.5 80z" />
<glyph unicode="&#xd7;" d="M133 362q141 145 287 287l-285 287l144 141l284 -284l287 288l143 -143l-288 -289l286 -284l-141 -144l-143.5 143.5l-143.5 143.5l-143.5 -143.5l-143.5 -143.5z" />
<glyph unicode="&#xd8;" horiz-adv-x="1406" d="M61 0l164 195q-72 88 -107.5 205.5t-35.5 258.5q0 145 40 270.5t117.5 217.5t193.5 145.5t269 53.5q121 0 218.5 -31t173.5 -88l153 182l99 -84l-160 -190q70 -90 104.5 -210t34.5 -266q0 -129 -38 -250.5t-114.5 -217t-193.5 -153.5t-277 -58q-233 0 -387 122l-155 -186 zM336 659q0 -66 10 -137t39 -137l559 664q-41 41 -101.5 66.5t-140.5 25.5q-111 0 -182 -45t-112 -116t-56.5 -156t-15.5 -165zM461 274q41 -41 100.5 -65.5t140.5 -24.5q111 0 182.5 45t113.5 116t57.5 153.5t15.5 160.5q0 68 -11 140.5t-40 138.5z" />
<glyph unicode="&#xd9;" horiz-adv-x="1390" d="M154 481v844h233v-850q0 -51 13.5 -102t48 -93t93 -69t148.5 -27q94 0 154.5 27t95.5 69t49.5 93t14.5 102v850h233v-844q0 -133 -41 -227t-114.5 -155.5t-173 -90t-216.5 -28.5q-115 0 -214 28.5t-170.5 90t-112.5 155.5t-41 227zM338 1755h291l182 -270h-200z" />
<glyph unicode="&#xda;" horiz-adv-x="1390" d="M154 481v844h233v-850q0 -51 13.5 -102t48 -93t93 -69t148.5 -27q94 0 154.5 27t95.5 69t49.5 93t14.5 102v850h233v-844q0 -133 -41 -227t-114.5 -155.5t-173 -90t-216.5 -28.5q-115 0 -214 28.5t-170.5 90t-112.5 155.5t-41 227zM580 1485l182 270h291l-273 -270h-200z " />
<glyph unicode="&#xdb;" horiz-adv-x="1390" d="M154 481v844h233v-850q0 -51 13.5 -102t48 -93t93 -69t148.5 -27q94 0 154.5 27t95.5 69t49.5 93t14.5 102v850h233v-844q0 -133 -41 -227t-114.5 -155.5t-173 -90t-216.5 -28.5q-115 0 -214 28.5t-170.5 90t-112.5 155.5t-41 227zM362 1485l215 270h230l215 -270h-209 l-121 135l-121 -135h-209z" />
<glyph unicode="&#xdc;" horiz-adv-x="1390" d="M154 481v844h233v-850q0 -51 13.5 -102t48 -93t93 -69t148.5 -27q94 0 154.5 27t95.5 69t49.5 93t14.5 102v850h233v-844q0 -133 -41 -227t-114.5 -155.5t-173 -90t-216.5 -28.5q-115 0 -214 28.5t-170.5 90t-112.5 155.5t-41 227zM381 1620q0 49 33.5 79.5t89.5 30.5 q55 0 88.5 -30.5t33.5 -79.5t-33.5 -80t-88.5 -31t-89 31t-34 80zM758 1620q0 49 33.5 79.5t88.5 30.5t89 -30.5t34 -79.5t-33.5 -80t-89.5 -31q-55 0 -88.5 31t-33.5 80z" />
<glyph unicode="&#xdd;" horiz-adv-x="1153" d="M0 1325h256l334 -590l334 590h229l-465 -819v-506h-229v510zM474 1485l182 270h291l-273 -270h-200z" />
<glyph unicode="&#xde;" horiz-adv-x="1220" d="M164 0v1325h229v-246h252q115 0 201 -34.5t142 -93t85 -132.5t29 -149q0 -78 -29 -152t-86 -132t-143 -94t-201 -36h-250v-256h-229zM393 449h250q55 0 96 19t68 50t40 70t13 80t-13 80.5t-40 70.5t-68 49.5t-96 18.5h-250v-438z" />
<glyph unicode="&#xdf;" horiz-adv-x="1095" d="M154 0v1057q0 98 31.5 168.5t85 117t125 69t151.5 22.5q170 0 271.5 -89.5t101.5 -234.5q0 -74 -29 -127t-62.5 -96t-61.5 -80t-28 -78q0 -49 48.5 -90t106.5 -89t106.5 -113.5t48.5 -164.5q0 -135 -89.5 -213.5t-236.5 -78.5q-63 0 -128 14t-112 41l31 176 q100 -59 207 -59q66 0 95.5 29.5t29.5 74.5q0 43 -22.5 76t-55.5 63.5t-73 60t-72.5 65.5t-55 82t-22.5 108q0 66 27.5 113.5t59.5 89.5t59.5 84t27.5 96q0 84 -47 123.5t-125 39.5q-84 0 -139.5 -41.5t-55.5 -142.5v-1073h-198z" />
<glyph unicode="&#xe0;" horiz-adv-x="1019" d="M86 274q0 104 47 169t119 102t158 50t163 13q14 0 40 -1t40 -3v86q0 45 -16 76t-45 49.5t-66 25.5t-77 7q-76 0 -151 -19.5t-118 -37.5l-28 182q57 27 147 44t186 17q98 0 170 -24.5t119 -68.5t69.5 -104.5t22.5 -131.5v-705h-204v135q-37 -82 -112 -118.5t-153 -36.5 q-68 0 -124 19t-98 57t-65.5 93.5t-23.5 124.5zM155 1444h291l182 -270h-200zM313 276q0 -51 35 -78.5t88 -27.5q45 0 84 17.5t66.5 47t43 68.5t15.5 84v45q-12 2 -35.5 2h-36.5q-53 0 -100 -8t-83 -27.5t-56.5 -49.5t-20.5 -73z" />
<glyph unicode="&#xe1;" horiz-adv-x="1019" d="M86 274q0 104 47 169t119 102t158 50t163 13q14 0 40 -1t40 -3v86q0 45 -16 76t-45 49.5t-66 25.5t-77 7q-76 0 -151 -19.5t-118 -37.5l-28 182q57 27 147 44t186 17q98 0 170 -24.5t119 -68.5t69.5 -104.5t22.5 -131.5v-705h-204v135q-37 -82 -112 -118.5t-153 -36.5 q-68 0 -124 19t-98 57t-65.5 93.5t-23.5 124.5zM313 276q0 -51 35 -78.5t88 -27.5q45 0 84 17.5t66.5 47t43 68.5t15.5 84v45q-12 2 -35.5 2h-36.5q-53 0 -100 -8t-83 -27.5t-56.5 -49.5t-20.5 -73zM404 1174l182 270h291l-273 -270h-200z" />
<glyph unicode="&#xe2;" horiz-adv-x="1019" d="M86 274q0 104 47 169t119 102t158 50t163 13q14 0 40 -1t40 -3v86q0 45 -16 76t-45 49.5t-66 25.5t-77 7q-76 0 -151 -19.5t-118 -37.5l-28 182q57 27 147 44t186 17q98 0 170 -24.5t119 -68.5t69.5 -104.5t22.5 -131.5v-705h-204v135q-37 -82 -112 -118.5t-153 -36.5 q-68 0 -124 19t-98 57t-65.5 93.5t-23.5 124.5zM186 1174l215 270h230l215 -270h-209l-121 135l-121 -135h-209zM313 276q0 -51 35 -78.5t88 -27.5q45 0 84 17.5t66.5 47t43 68.5t15.5 84v45q-12 2 -35.5 2h-36.5q-53 0 -100 -8t-83 -27.5t-56.5 -49.5t-20.5 -73z" />
<glyph unicode="&#xe3;" horiz-adv-x="1019" d="M86 274q0 104 47 169t119 102t158 50t163 13q14 0 40 -1t40 -3v86q0 45 -16 76t-45 49.5t-66 25.5t-77 7q-76 0 -151 -19.5t-118 -37.5l-28 182q57 27 147 44t186 17q98 0 170 -24.5t119 -68.5t69.5 -104.5t22.5 -131.5v-705h-204v135q-37 -82 -112 -118.5t-153 -36.5 q-68 0 -124 19t-98 57t-65.5 93.5t-23.5 124.5zM194 1196q0 113 53.5 186.5t157.5 73.5q33 0 65 -11t59.5 -25.5t51 -26t41.5 -11.5q29 0 40.5 22.5t11.5 51.5h165q0 -113 -53 -186.5t-157 -73.5q-31 0 -62 11.5t-59.5 25.5t-53 25.5t-43.5 11.5q-29 0 -40 -22.5t-11 -51.5 h-166zM313 276q0 -51 35 -78.5t88 -27.5q45 0 84 17.5t66.5 47t43 68.5t15.5 84v45q-12 2 -35.5 2h-36.5q-53 0 -100 -8t-83 -27.5t-56.5 -49.5t-20.5 -73z" />
<glyph unicode="&#xe4;" horiz-adv-x="1019" d="M86 274q0 104 47 169t119 102t158 50t163 13q14 0 40 -1t40 -3v86q0 45 -16 76t-45 49.5t-66 25.5t-77 7q-76 0 -151 -19.5t-118 -37.5l-28 182q57 27 147 44t186 17q98 0 170 -24.5t119 -68.5t69.5 -104.5t22.5 -131.5v-705h-204v135q-37 -82 -112 -118.5t-153 -36.5 q-68 0 -124 19t-98 57t-65.5 93.5t-23.5 124.5zM205 1309q0 49 33.5 79.5t89.5 30.5q55 0 88.5 -30.5t33.5 -79.5t-33.5 -80t-88.5 -31t-89 31t-34 80zM313 276q0 -51 35 -78.5t88 -27.5q45 0 84 17.5t66.5 47t43 68.5t15.5 84v45q-12 2 -35.5 2h-36.5q-53 0 -100 -8 t-83 -27.5t-56.5 -49.5t-20.5 -73zM582 1309q0 49 33.5 79.5t88.5 30.5t89 -30.5t34 -79.5t-33.5 -80t-89.5 -31q-55 0 -88.5 31t-33.5 80z" />
<glyph unicode="&#xe5;" horiz-adv-x="1019" d="M86 274q0 104 47 169t119 102t158 50t163 13q14 0 40 -1t40 -3v86q0 45 -16 76t-45 49.5t-66 25.5t-77 7q-76 0 -151 -19.5t-118 -37.5l-28 182q57 27 147 44t186 17q98 0 170 -24.5t119 -68.5t69.5 -104.5t22.5 -131.5v-705h-204v135q-37 -82 -112 -118.5t-153 -36.5 q-68 0 -124 19t-98 57t-65.5 93.5t-23.5 124.5zM287 1323q0 78 63.5 127t165.5 49t165.5 -49t63.5 -127t-63.5 -127t-165.5 -49t-165.5 49t-63.5 127zM313 276q0 -51 35 -78.5t88 -27.5q45 0 84 17.5t66.5 47t43 68.5t15.5 84v45q-12 2 -35.5 2h-36.5q-53 0 -100 -8 t-83 -27.5t-56.5 -49.5t-20.5 -73zM442 1323q0 -31 19.5 -50.5t54.5 -19.5t54.5 19.5t19.5 50.5t-19.5 50.5t-54.5 19.5t-54.5 -19.5t-19.5 -50.5z" />
<glyph unicode="&#xe6;" horiz-adv-x="1552" d="M86 274q0 104 47 170t119 103t158 51t163 14q14 0 40 -1t40 -3v82q0 45 -16 76t-45 49.5t-66 25.5t-77 7q-76 0 -151 -19.5t-118 -37.5l-28 182q57 27 147 44t186 17q104 0 174 -29.5t113 -78.5q109 109 287 108q199 0 300 -111.5t118 -310.5v-172h-631q8 -76 32.5 -128 t63.5 -83.5t88 -46t107 -14.5q63 0 131.5 14.5t134.5 40.5l37 -184q-152 -61 -301 -62q-129 0 -232.5 45.5t-171.5 137.5q-45 -78 -131 -129t-205 -51q-68 0 -125 19t-99 57t-65.5 93.5t-23.5 124.5zM313 276q0 -51 36 -78.5t89 -27.5q45 0 84 17.5t65.5 47t42 69.5t15.5 85 v47q-12 2 -35.5 2h-36.5q-53 0 -100 -9t-83 -28.5t-56.5 -50.5t-20.5 -74zM846 612h407q0 115 -45 175.5t-149 60.5q-98 0 -150.5 -67.5t-62.5 -168.5z" />
<glyph unicode="&#xe7;" horiz-adv-x="917" d="M76 508q0 131 39 229.5t105.5 165t156.5 100t194 33.5q63 0 129 -10t134 -35l-29 -186q-57 23 -111.5 32t-105.5 9q-123 0 -203 -79t-80 -259q0 -90 23.5 -153.5t64.5 -104.5t94.5 -59.5t114.5 -18.5q109 0 223 51l37 -184q-74 -31 -146.5 -45t-142.5 -14h-4l-30 -80 q80 -12 117.5 -59.5t37.5 -119.5q0 -53 -23.5 -91t-60.5 -62.5t-85 -35.5t-97 -11q-43 0 -84 7t-76 23l41 138q23 -10 52.5 -15.5t56.5 -5.5q39 0 67.5 14.5t28.5 43.5q0 35 -36 47t-75 12q-23 0 -40 -1t-31 -3l78 221q-147 45 -240.5 170t-93.5 336z" />
<glyph unicode="&#xe8;" horiz-adv-x="1024" d="M76 522q0 117 31.5 211t91 161t142.5 103.5t185 36.5q199 0 302.5 -111.5t119.5 -310.5v-172h-639q8 -76 34 -128t64.5 -83.5t89 -46t107.5 -14.5q63 0 132 14.5t134 40.5l37 -184q-152 -61 -301 -62q-109 0 -205 34t-168.5 101.5t-114.5 170t-42 239.5zM164 1444h291 l182 -270h-200zM309 612h412q0 115 -45 175.5t-150 60.5q-98 0 -152.5 -67.5t-64.5 -168.5z" />
<glyph unicode="&#xe9;" horiz-adv-x="1024" d="M76 522q0 117 31.5 211t91 161t142.5 103.5t185 36.5q199 0 302.5 -111.5t119.5 -310.5v-172h-639q8 -76 34 -128t64.5 -83.5t89 -46t107.5 -14.5q63 0 132 14.5t134 40.5l37 -184q-152 -61 -301 -62q-109 0 -205 34t-168.5 101.5t-114.5 170t-42 239.5zM309 612h412 q0 115 -45 175.5t-150 60.5q-98 0 -152.5 -67.5t-64.5 -168.5zM416 1174l182 270h291l-273 -270h-200z" />
<glyph unicode="&#xea;" horiz-adv-x="1024" d="M76 522q0 117 31.5 211t91 161t142.5 103.5t185 36.5q199 0 302.5 -111.5t119.5 -310.5v-172h-639q8 -76 34 -128t64.5 -83.5t89 -46t107.5 -14.5q63 0 132 14.5t134 40.5l37 -184q-152 -61 -301 -62q-109 0 -205 34t-168.5 101.5t-114.5 170t-42 239.5zM180 1174 l215 270h230l215 -270h-209l-121 135l-121 -135h-209zM309 612h412q0 115 -45 175.5t-150 60.5q-98 0 -152.5 -67.5t-64.5 -168.5z" />
<glyph unicode="&#xeb;" horiz-adv-x="1024" d="M76 522q0 117 31.5 211t91 161t142.5 103.5t185 36.5q199 0 302.5 -111.5t119.5 -310.5v-172h-639q8 -76 34 -128t64.5 -83.5t89 -46t107.5 -14.5q63 0 132 14.5t134 40.5l37 -184q-152 -61 -301 -62q-109 0 -205 34t-168.5 101.5t-114.5 170t-42 239.5zM199 1309 q0 49 33.5 79.5t89.5 30.5q55 0 88.5 -30.5t33.5 -79.5t-33.5 -80t-88.5 -31t-89 31t-34 80zM309 612h412q0 115 -45 175.5t-150 60.5q-98 0 -152.5 -67.5t-64.5 -168.5zM576 1309q0 49 33.5 79.5t88.5 30.5t89 -30.5t34 -79.5t-33.5 -80t-89.5 -31q-55 0 -88.5 31t-33.5 80 z" />
<glyph unicode="&#xec;" horiz-adv-x="552" d="M-94 1444h291l182 -270h-200zM174 0v1014h205v-1014h-205z" />
<glyph unicode="&#xed;" horiz-adv-x="552" d="M174 0v1014h205v-1014h-205zM175 1174l182 270h291l-273 -270h-200z" />
<glyph unicode="&#xee;" horiz-adv-x="552" d="M-51 1174l215 270h230l215 -270h-209l-121 135l-121 -135h-209zM174 0v1014h205v-1014h-205z" />
<glyph unicode="&#xef;" horiz-adv-x="552" d="M-32 1309q0 49 33.5 79.5t89.5 30.5q55 0 88.5 -30.5t33.5 -79.5t-33.5 -80t-88.5 -31t-89 31t-34 80zM174 0v1014h205v-1014h-205zM345 1309q0 49 33.5 79.5t88.5 30.5t89 -30.5t34 -79.5t-33.5 -80t-89.5 -31q-55 0 -88.5 31t-33.5 80z" />
<glyph unicode="&#xf0;" horiz-adv-x="1058" d="M78 487q0 131 32.5 223.5t91 151t137.5 85t169 26.5q78 0 136 -23.5t93 -52.5q-8 25 -20 58.5t-26.5 68.5t-31 68.5t-30.5 56.5l-334 -62v146l262 45q-25 35 -47 65q-20 27 -39.5 54.5t-36.5 48.5h221q23 -29 48.5 -62.5t46.5 -62.5l264 51v-145l-191 -39 q78 -154 117 -304.5t39 -334.5q0 -293 -120 -431t-329 -138q-215 0 -333.5 133t-118.5 374zM289 487q0 -59 13 -116.5t42 -102.5t75 -71.5t111 -26.5q61 0 106.5 26.5t75 71.5t43 102.5t13.5 116.5q0 150 -65.5 224.5t-172.5 74.5q-115 0 -178 -71.5t-63 -227.5z" />
<glyph unicode="&#xf1;" horiz-adv-x="1114" d="M154 0v649q0 100 33.5 174t89 120t128 68.5t152.5 22.5t152.5 -18.5t128 -62.5t89.5 -118.5t34 -185.5v-649h-216v662q0 47 -16 81.5t-43 58t-60.5 35t-68.5 11.5t-68.5 -11.5t-60.5 -35t-42 -58t-15 -81.5v-662h-217zM235 1196q0 113 53.5 186.5t157.5 73.5q33 0 65 -11 t59.5 -25.5t51 -26t41.5 -11.5q29 0 40.5 22.5t11.5 51.5h165q0 -113 -53 -186.5t-157 -73.5q-31 0 -62 11.5t-59.5 25.5t-53 25.5t-43.5 11.5q-29 0 -40 -22.5t-11 -51.5h-166z" />
<glyph unicode="&#xf2;" horiz-adv-x="1058" d="M74 508q0 131 34.5 230.5t96 165t144.5 99t179 33.5q207 0 331 -133t124 -395q0 -131 -35 -230.5t-96 -166t-144 -100.5t-180 -34q-96 0 -179 34t-144.5 100.5t-96 166t-34.5 230.5zM155 1444h291l182 -270h-200zM297 508q0 -156 54.5 -249t176.5 -93q123 0 177.5 93 t54.5 249t-54.5 248t-177.5 92t-177 -92t-54 -248z" />
<glyph unicode="&#xf3;" horiz-adv-x="1058" d="M74 508q0 131 34.5 230.5t96 165t144.5 99t179 33.5q207 0 331 -133t124 -395q0 -131 -35 -230.5t-96 -166t-144 -100.5t-180 -34q-96 0 -179 34t-144.5 100.5t-96 166t-34.5 230.5zM297 508q0 -156 54.5 -249t176.5 -93q123 0 177.5 93t54.5 249t-54.5 248t-177.5 92 t-177 -92t-54 -248zM424 1174l182 270h291l-273 -270h-200z" />
<glyph unicode="&#xf4;" horiz-adv-x="1058" d="M74 508q0 131 34.5 230.5t96 165t144.5 99t179 33.5q207 0 331 -133t124 -395q0 -131 -35 -230.5t-96 -166t-144 -100.5t-180 -34q-96 0 -179 34t-144.5 100.5t-96 166t-34.5 230.5zM200 1174l215 270h230l215 -270h-209l-121 135l-121 -135h-209zM297 508 q0 -156 54.5 -249t176.5 -93q123 0 177.5 93t54.5 249t-54.5 248t-177.5 92t-177 -92t-54 -248z" />
<glyph unicode="&#xf5;" horiz-adv-x="1058" d="M74 508q0 131 34.5 230.5t96 165t144.5 99t179 33.5q207 0 331 -133t124 -395q0 -131 -35 -230.5t-96 -166t-144 -100.5t-180 -34q-96 0 -179 34t-144.5 100.5t-96 166t-34.5 230.5zM204 1196q0 113 53.5 186.5t157.5 73.5q33 0 65 -11t59.5 -25.5t51 -26t41.5 -11.5 q29 0 40.5 22.5t11.5 51.5h165q0 -113 -53 -186.5t-157 -73.5q-31 0 -62 11.5t-59.5 25.5t-53 25.5t-43.5 11.5q-29 0 -40 -22.5t-11 -51.5h-166zM297 508q0 -156 54.5 -249t176.5 -93q123 0 177.5 93t54.5 249t-54.5 248t-177.5 92t-177 -92t-54 -248z" />
<glyph unicode="&#xf6;" horiz-adv-x="1058" d="M74 508q0 131 34.5 230.5t96 165t144.5 99t179 33.5q207 0 331 -133t124 -395q0 -131 -35 -230.5t-96 -166t-144 -100.5t-180 -34q-96 0 -179 34t-144.5 100.5t-96 166t-34.5 230.5zM219 1309q0 49 33.5 79.5t89.5 30.5q55 0 88.5 -30.5t33.5 -79.5t-33.5 -80t-88.5 -31 t-89 31t-34 80zM297 508q0 -156 54.5 -249t176.5 -93q123 0 177.5 93t54.5 249t-54.5 248t-177.5 92t-177 -92t-54 -248zM596 1309q0 49 33.5 79.5t88.5 30.5t89 -30.5t34 -79.5t-33.5 -80t-89.5 -31q-55 0 -88.5 31t-33.5 80z" />
<glyph unicode="&#xf7;" d="M113 557v191h899v-191h-899zM430 289q0 59 37 91t96 32t96 -32t37 -91t-36.5 -91t-96.5 -32q-59 0 -96 31.5t-37 91.5zM430 1018q0 59 37 91t96 32t96 -32t37 -91t-36.5 -91t-96.5 -32q-59 0 -96 31.5t-37 91.5z" />
<glyph unicode="&#xf8;" horiz-adv-x="1060" d="M55 0l117 152q-47 66 -72.5 153.5t-25.5 202.5q0 131 34.5 229.5t96 165t144.5 99t179 32.5q78 0 146.5 -22.5t126.5 -63.5l102 133l94 -67l-114 -148q47 -66 73.5 -154.5t26.5 -203.5q0 -131 -35 -230.5t-95 -165t-143 -99t-182 -33.5q-158 0 -270 83l-106 -135z M297 508q0 -102 20 -172l361 455q-54 57 -150 57q-123 0 -177 -92t-54 -248zM381 221q51 -55 147 -55q123 0 177.5 93t54.5 249q0 102 -21 172z" />
<glyph unicode="&#xf9;" horiz-adv-x="1093" d="M143 360v654h215v-660q0 -94 51.5 -141t137.5 -47t137 47t51 141v660h215v-654q0 -106 -33.5 -178.5t-89 -118t-128 -64.5t-152.5 -19t-152.5 19t-128 64.5t-89.5 118t-34 178.5zM176 1444h291l182 -270h-200z" />
<glyph unicode="&#xfa;" horiz-adv-x="1093" d="M143 360v654h215v-660q0 -94 51.5 -141t137.5 -47t137 47t51 141v660h215v-654q0 -106 -33.5 -178.5t-89 -118t-128 -64.5t-152.5 -19t-152.5 19t-128 64.5t-89.5 118t-34 178.5zM445 1174l182 270h291l-273 -270h-200z" />
<glyph unicode="&#xfb;" horiz-adv-x="1093" d="M143 360v654h215v-660q0 -94 51.5 -141t137.5 -47t137 47t51 141v660h215v-654q0 -106 -33.5 -178.5t-89 -118t-128 -64.5t-152.5 -19t-152.5 19t-128 64.5t-89.5 118t-34 178.5zM219 1174l215 270h230l215 -270h-209l-121 135l-121 -135h-209z" />
<glyph unicode="&#xfc;" horiz-adv-x="1093" d="M143 360v654h215v-660q0 -94 51.5 -141t137.5 -47t137 47t51 141v660h215v-654q0 -106 -33.5 -178.5t-89 -118t-128 -64.5t-152.5 -19t-152.5 19t-128 64.5t-89.5 118t-34 178.5zM238 1309q0 49 33.5 79.5t89.5 30.5q55 0 88.5 -30.5t33.5 -79.5t-33.5 -80t-88.5 -31 t-89 31t-34 80zM615 1309q0 49 33.5 79.5t88.5 30.5t89 -30.5t34 -79.5t-33.5 -80t-89.5 -31q-55 0 -88.5 31t-33.5 80z" />
<glyph unicode="&#xfd;" horiz-adv-x="1140" d="M147 379v635h219v-602q0 -129 51.5 -187.5t143.5 -58.5q41 0 92 11t105 30v807h219v-1006q0 -109 -34 -188.5t-93.5 -132t-141 -78t-180.5 -25.5q-49 0 -100 8.5t-100.5 23.5t-94.5 35.5t-77 45.5l61 188q63 -47 145 -78.5t158 -31.5q106 0 172 54t66 173v25 q-55 -25 -111.5 -36t-110.5 -11q-178 0 -283.5 102t-105.5 297zM469 1174l182 270h291l-273 -270h-200z" />
<glyph unicode="&#xfe;" horiz-adv-x="1083" d="M147 -391l3 1837h212v-492q18 18 45 32.5t58 25t63.5 16.5t61.5 6q94 0 172 -29.5t132 -93t84 -164t30 -241.5q0 -127 -33 -224.5t-89.5 -165t-132 -102t-163.5 -34.5q-55 0 -110.5 11t-112.5 38v-420h-220zM367 205q51 -18 97 -28.5t91 -10.5q104 0 163.5 74.5 t59.5 263.5q0 186 -56 265t-159 79q-98 0 -147 -58.5t-49 -158.5v-426z" />
<glyph unicode="&#xff;" horiz-adv-x="1140" d="M147 379v635h219v-602q0 -129 51.5 -187.5t143.5 -58.5q41 0 92 11t105 30v807h219v-1006q0 -109 -34 -188.5t-93.5 -132t-141 -78t-180.5 -25.5q-49 0 -100 8.5t-100.5 23.5t-94.5 35.5t-77 45.5l61 188q63 -47 145 -78.5t158 -31.5q106 0 172 54t66 173v25 q-55 -25 -111.5 -36t-110.5 -11q-178 0 -283.5 102t-105.5 297zM262 1309q0 49 33.5 79.5t89.5 30.5q55 0 88.5 -30.5t33.5 -79.5t-33.5 -80t-88.5 -31t-89 31t-34 80zM639 1309q0 49 33.5 79.5t88.5 30.5t89 -30.5t34 -79.5t-33.5 -80t-89.5 -31q-55 0 -88.5 31t-33.5 80z " />
<glyph unicode="&#x152;" horiz-adv-x="2000" d="M82 659q0 145 40 270.5t117.5 217.5t193.5 145.5t269 53.5q68 0 122.5 -11.5t98.5 -31t79.5 -45t68.5 -56.5v123h821v-192h-589v-328h552v-193h-552v-243q0 -35 9 -67t29.5 -56.5t55.5 -38.5t88 -14h424v-193h-430q-154 0 -237 41t-132 137q-63 -82 -163 -140t-245 -58 q-147 0 -261.5 50t-194.5 140t-122 215t-42 274zM336 659q0 -78 15.5 -159.5t56.5 -150t112.5 -112.5t181.5 -44q111 0 182.5 44t113.5 112.5t57.5 150.5t15.5 159q0 80 -15.5 163t-57.5 152.5t-113.5 114t-182.5 44.5t-182 -44.5t-112 -114t-56.5 -152.5t-15.5 -163z" />
<glyph unicode="&#x153;" horiz-adv-x="1703" d="M74 508q0 131 34.5 229.5t96 165t144.5 99t179 32.5q106 0 192.5 -41t143.5 -121q57 78 144.5 120t197.5 42q199 0 302.5 -111.5t119.5 -310.5v-172h-639q8 -76 34 -128t64.5 -83.5t89 -46t107.5 -14.5q63 0 132 14.5t134 40.5l37 -184q-152 -61 -301 -62 q-125 0 -231.5 44.5t-177.5 134.5q-57 -90 -146.5 -133t-202.5 -43q-96 0 -179 33.5t-144.5 99t-96 165t-34.5 230.5zM297 508q0 -156 54.5 -249t176.5 -93q123 0 177.5 93t54.5 249t-54.5 248t-177.5 92t-177 -92t-54 -248zM989 612h412q0 115 -45 175.5t-150 60.5 q-98 0 -152.5 -67.5t-64.5 -168.5z" />
<glyph unicode="&#x178;" horiz-adv-x="1153" d="M0 1325h256l334 -590l334 590h229l-465 -819v-506h-229v510zM252 1620q0 49 33.5 79.5t89.5 30.5q55 0 88.5 -30.5t33.5 -79.5t-33.5 -80t-88.5 -31t-89 31t-34 80zM629 1620q0 49 33.5 79.5t88.5 30.5t89 -30.5t34 -79.5t-33.5 -80t-89.5 -31q-55 0 -88.5 31t-33.5 80z " />
<glyph unicode="&#x2c6;" horiz-adv-x="1024" d="M182 1174l215 270h230l215 -270h-209l-121 135l-121 -135h-209z" />
<glyph unicode="&#x2dc;" horiz-adv-x="1024" d="M186 1196q0 113 53.5 186.5t157.5 73.5q33 0 65 -11t59.5 -25.5t51 -26t41.5 -11.5q29 0 40.5 22.5t11.5 51.5h165q0 -113 -53 -186.5t-157 -73.5q-31 0 -62 11.5t-59.5 25.5t-53 25.5t-43.5 11.5q-29 0 -40 -22.5t-11 -51.5h-166z" />
<glyph unicode="&#x2000;" horiz-adv-x="905" />
<glyph unicode="&#x2001;" horiz-adv-x="1810" />
<glyph unicode="&#x2002;" horiz-adv-x="905" />
<glyph unicode="&#x2003;" horiz-adv-x="1810" />
<glyph unicode="&#x2004;" horiz-adv-x="603" />
<glyph unicode="&#x2005;" horiz-adv-x="452" />
<glyph unicode="&#x2006;" horiz-adv-x="301" />
<glyph unicode="&#x2007;" horiz-adv-x="301" />
<glyph unicode="&#x2008;" horiz-adv-x="226" />
<glyph unicode="&#x2009;" horiz-adv-x="362" />
<glyph unicode="&#x200a;" horiz-adv-x="100" />
<glyph unicode="&#x2010;" horiz-adv-x="819" d="M141 455v202h537v-202h-537z" />
<glyph unicode="&#x2011;" horiz-adv-x="819" d="M141 455v202h537v-202h-537z" />
<glyph unicode="&#x2012;" horiz-adv-x="819" d="M141 455v202h537v-202h-537z" />
<glyph unicode="&#x2013;" horiz-adv-x="1198" d="M141 463v190h916v-190h-916z" />
<glyph unicode="&#x2014;" horiz-adv-x="1579" d="M141 463v190h1297v-190h-1297z" />
<glyph unicode="&#x2018;" horiz-adv-x="471" d="M74 1004q0 49 9 101t25.5 102t39 96.5t51.5 82.5h200q-41 -63 -62.5 -149t-21.5 -172q0 -74 17 -139h-252q-6 37 -6 78z" />
<glyph unicode="&#x2019;" horiz-adv-x="471" d="M72 926q41 63 62.5 149t21.5 172q0 74 -17 139h252q6 -37 6 -77q0 -49 -9 -101.5t-25.5 -102.5t-39 -96t-51.5 -83h-200z" />
<glyph unicode="&#x201a;" horiz-adv-x="471" d="M72 -303q41 63 62.5 149t21.5 172q0 74 -17 139h252q6 -37 6 -77q0 -49 -9 -101.5t-25.5 -102.5t-39 -96t-51.5 -83h-200z" />
<glyph unicode="&#x201c;" horiz-adv-x="880" d="M53 1039.5q4 62.5 20.5 125t43 120.5t61.5 101h201q-37 -45 -57.5 -103t-26.5 -120.5t-1 -124t17 -112.5h-252q-10 51 -6 113.5zM502 1039.5q4 62.5 20.5 125t43 120.5t61.5 101h200q-37 -45 -57 -103t-26.5 -120.5t-1 -124t17.5 -112.5h-252q-10 51 -6 113.5z" />
<glyph unicode="&#x201d;" horiz-adv-x="880" d="M51 926q47 57 67.5 135t20.5 158q0 45 -5 88t-15 79h252q6 -37 6 -77q0 -49 -9.5 -101.5t-25.5 -102.5t-38.5 -96t-51.5 -83h-201zM500 926q47 57 67.5 135t20.5 158q0 45 -5 88t-16 79h252q6 -37 6 -77q0 -49 -9 -101.5t-25.5 -102.5t-39 -96t-51.5 -83h-200z" />
<glyph unicode="&#x201e;" horiz-adv-x="880" d="M51 -305q47 57 67.5 135t20.5 158q0 45 -5 88t-15 80h252q6 -37 6 -78q0 -49 -9.5 -101.5t-25.5 -102.5t-38.5 -96t-51.5 -83h-201zM500 -305q47 57 67.5 135t20.5 158q0 45 -5 88t-16 80h252q6 -37 6 -78q0 -49 -9 -101.5t-25.5 -102.5t-39 -96t-51.5 -83h-200z" />
<glyph unicode="&#x2022;" horiz-adv-x="737" d="M121 555q0 125 71.5 184.5t176.5 59.5q111 0 178 -59.5t67 -184.5q0 -121 -67.5 -183.5t-177.5 -62.5q-104 0 -176 62.5t-72 183.5z" />
<glyph unicode="&#x2026;" horiz-adv-x="1622" d="M102 123q0 66 43 104.5t113 38.5q66 0 109 -38.5t43 -104.5q0 -70 -43 -106.5t-109 -36.5q-70 0 -113 36.5t-43 106.5zM657 123q0 66 43 104.5t113 38.5q66 0 109 -38.5t43 -104.5q0 -70 -43 -106.5t-109 -36.5q-70 0 -113 36.5t-43 106.5zM1212 123q0 66 43 104.5 t113 38.5q66 0 109 -38.5t43 -104.5q0 -70 -43 -106.5t-109 -36.5q-70 0 -113 36.5t-43 106.5z" />
<glyph unicode="&#x202f;" horiz-adv-x="362" />
<glyph unicode="&#x2039;" horiz-adv-x="655" d="M37 555l348 381h233l-323 -381l323 -383h-233z" />
<glyph unicode="&#x203a;" horiz-adv-x="655" d="M37 172h233l348 383l-348 381h-233l323 -381z" />
<glyph unicode="&#x205f;" horiz-adv-x="452" />
<glyph unicode="&#x20ac;" d="M31 420v151h131q-2 23 -2 45.5v45.5v42t2 39h-131v154h155q27 111 78 195t122 140t159 85t188 29q96 0 189.5 -15.5t152.5 -52.5l-59 -199q-66 29 -141.5 41.5t-135.5 12.5q-242 0 -315 -236h547l-41 -154h-535q-2 -20 -2 -39.5v-41.5v-46.5t4 -44.5h492l-41 -151h-418 q88 -233 340 -234q66 0 146.5 13.5t146.5 46.5l53 -197q-76 -39 -164 -54t-188 -15q-102 0 -193.5 27.5t-167 82.5t-131 138t-84.5 192h-157z" />
<glyph unicode="&#x2122;" horiz-adv-x="1689" d="M82 1186v139h547v-139h-193v-473h-168v473h-186zM758 713v612h176l196 -278l199 278h176v-612h-166v374l-141 -221h-133l-141 221v-374h-166z" />
<glyph unicode="&#x25fc;" horiz-adv-x="1014" d="M0 0v1015h1015v-1015h-1015z" />
</font>
</defs>
</svg>
